<svg width="12" height="10" viewBox="0 0 12 10" fill="none" xmlns="http://www.w3.org/2000/svg">
<path fill-rule="evenodd" clip-rule="evenodd" d="M3.85489 3.14604C3.90146 3.19248 3.9384 3.24766 3.96361 3.30841C3.98881 3.36915 4.00179 3.43427 4.00179 3.50004C4.00179 3.56581 3.98881 3.63093 3.96361 3.69167C3.9384 3.75242 3.90146 3.80759 3.85489 3.85404L1.20789 6.50004L3.85489 9.14604C3.94878 9.23993 4.00153 9.36726 4.00153 9.50004C4.00153 9.63281 3.94878 9.76015 3.85489 9.85404C3.76101 9.94793 3.63367 10.0007 3.50089 10.0007C3.36812 10.0007 3.24078 9.94793 3.14689 9.85404L0.146894 6.85404C0.100331 6.80759 0.0633878 6.75242 0.0381813 6.69167C0.0129749 6.63093 0 6.56581 0 6.50004C0 6.43427 0.0129749 6.36915 0.0381813 6.30841C0.0633878 6.24766 0.100331 6.19248 0.146894 6.14604L3.14689 3.14604C3.19334 3.09948 3.24851 3.06253 3.30926 3.03733C3.37001 3.01212 3.43513 2.99915 3.50089 2.99915C3.56666 2.99915 3.63178 3.01212 3.69253 3.03733C3.75327 3.06253 3.80845 3.09948 3.85489 3.14604Z" fill="black" fill-opacity="0.7"/>
<path fill-rule="evenodd" clip-rule="evenodd" d="M11.5009 0C11.6335 0 11.7607 0.0526785 11.8545 0.146447C11.9482 0.240215 12.0009 0.367392 12.0009 0.5V4.5C12.0009 5.16304 11.7375 5.79893 11.2687 6.26777C10.7998 6.73661 10.164 7 9.50092 7H1.00092C0.868307 7 0.74113 6.94732 0.647362 6.85355C0.553594 6.75979 0.500916 6.63261 0.500916 6.5C0.500916 6.36739 0.553594 6.24021 0.647362 6.14645C0.74113 6.05268 0.868307 6 1.00092 6H9.50092C9.89874 6 10.2803 5.84196 10.5616 5.56066C10.8429 5.27936 11.0009 4.89782 11.0009 4.5V0.5C11.0009 0.367392 11.0536 0.240215 11.1474 0.146447C11.2411 0.0526785 11.3683 0 11.5009 0Z" fill="black" fill-opacity="0.7"/>
</svg>
